<svg xmlns="http://www.w3.org/2000/svg" width="32" height="32" fill="none" viewBox="0 0 32 32"><path fill="#F21E84" d="M16 8.75a3.75 3.75 0 1 0 0-7.5 3.75 3.75 0 0 0 0 7.5Zm0-6a2.25 2.25 0 1 1 0 4.5 2.25 2.25 0 0 1 0-4.5Zm11.11 14.177-5.651-6.407a3.75 3.75 0 0 0-2.813-1.27h-5.292a3.75 3.75 0 0 0-2.813 1.269L4.89 16.927a2.25 2.25 0 0 0 3.168 3.198l2.638-2.116-2.266 8.606a2.25 2.25 0 0 0 4.094 1.868L16 22.5l3.476 5.989a2.25 2.25 0 0 0 4.094-1.868l-2.266-8.608 2.639 2.112a2.25 2.25 0 0 0 3.167-3.195v-.003Zm-1.079 2.103a.75.75 0 0 1-1.061 0 .523.523 0 0 0-.061-.055l-4.439-3.56a.75.75 0 0 0-1.195.775l2.859 10.866a.966.966 0 0 0 .046.125.75.75 0 1 1-1.36.634.542.542 0 0 0-.031-.06l-4.14-7.13a.75.75 0 0 0-1.298 0l-4.14 7.131a.534.534 0 0 0-.031.06.75.75 0 0 1-1.36-.633.954.954 0 0 0 .046-.125l2.859-10.867a.75.75 0 0 0-.316-.816.759.759 0 0 0-.409-.125.75.75 0 0 0-.47.165l-4.439 3.56a.523.523 0 0 0-.061.055.75.75 0 0 1-1.061-1.061L6 17.935l5.665-6.424a2.25 2.25 0 0 1 1.688-.761h5.292a2.25 2.25 0 0 1 1.688.761L26 17.935l.032.034a.748.748 0 0 1 0 1.061Z"/></svg>