<svg xmlns="http://www.w3.org/2000/svg" width="32" height="32" fill="none" viewBox="0 0 32 32"><path fill="#9747FF" d="M10.44 28h9.154C25.368 28 28 23.732 28 19.77a6.877 6.877 0 0 0-.68-2.677 6.836 6.836 0 0 0-1.678-2.188 7.96 7.96 0 0 0-5.336-2.216 7.924 7.924 0 0 0-3.752 1.188 7.99 7.99 0 0 0-2.73 2.852 932.84 932.84 0 0 1-1.615-3.254h1.697c.503-.031.98-.232 1.355-.57.376-.338.628-.793.715-1.292a2.707 2.707 0 0 0 .963-2.174c0-2.955-3.284-4.438-5.11-4.438-2.493-.059-3.216 1.763-3.863 3.393l-.028.073C7.534 9.509 4 18.748 4 21.554a6.558 6.558 0 0 0 1.844 4.588 6.25 6.25 0 0 0 4.596 1.856V28ZM9.43 9.06c.7-1.763 1.089-2.444 2.33-2.444h.055c1.195 0 3.52.996 3.52 2.824.021.184-.007.37-.082.539a1.5 1.5 0 0 0-.366-.35.76.76 0 0 0-.41-.139h-.426c-.415-.527-1.691-1.462-2.684-1.286l1.04 1.33h1.485l.215.516c.266.637.174.955.088 1.093a.447.447 0 0 1-.334.21H8.826l.495.65c.217.284.506.506.789.675.002.121.03.24.084.35l.222.447v.002c.47.948 1.56 3.144 2.145 4.316-.02.029-.04.059-.058.089l-2.32 3.793a.812.812 0 0 0 .264 1.11.797.797 0 0 0 1.103-.265l2.084-3.41a.999.999 0 0 0 .218.027c.082-.003.162-.016.24-.038l2.152 3.569a.803.803 0 0 0 1.101.271.806.806 0 0 0 .27-1.108l-2.376-3.94a1.659 1.659 0 0 0-.113-.163 6.328 6.328 0 0 1 2.142-2.399 6.272 6.272 0 0 1 3.037-1.027 6.353 6.353 0 0 1 4.249 1.784 5.31 5.31 0 0 1 1.843 3.684c-.001 3.293-2.105 6.616-6.803 6.616H10.44a4.692 4.692 0 0 1-3.454-1.372 4.917 4.917 0 0 1-1.381-3.445c0-2.13 2.764-9.758 3.826-12.509Z"/></svg>