<svg xmlns="http://www.w3.org/2000/svg" width="32" height="32" fill="none" viewBox="0 0 32 32"><path fill="#22C1C1" d="M28.75 14A2.75 2.75 0 0 0 26 11.25h-9.25V9.675a3.756 3.756 0 0 0 3-3.675c0-3.362-3.198-5.534-3.334-5.625a.75.75 0 0 0-.832 0C15.448.466 12.25 2.638 12.25 6a3.756 3.756 0 0 0 3 3.675v1.575H6A2.75 2.75 0 0 0 3.25 14v2.916c0 1.066.352 2.1 1 2.947V25A2.75 2.75 0 0 0 7 27.75h18A2.75 2.75 0 0 0 27.75 25v-5.137a4.85 4.85 0 0 0 1-2.947V14Zm-15-8c0-1.925 1.5-3.426 2.25-4.055.75.625 2.25 2.125 2.25 4.055a2.25 2.25 0 0 1-4.5 0Zm-9 8A1.25 1.25 0 0 1 6 12.75h20A1.25 1.25 0 0 1 27.25 14v2.916c0 1.79-1.416 3.285-3.157 3.333A3.25 3.25 0 0 1 20.75 17a.75.75 0 1 0-1.5 0 3.25 3.25 0 1 1-6.5 0 .75.75 0 1 0-1.5 0 3.251 3.251 0 0 1-3.343 3.25c-1.74-.049-3.157-1.544-3.157-3.334V14ZM25 26.25H7A1.25 1.25 0 0 1 5.75 25v-3.836a4.6 4.6 0 0 0 2.117.586 4.726 4.726 0 0 0 3.446-1.345c.26-.254.49-.537.687-.843a4.75 4.75 0 0 0 8 0c.198.306.43.589.69.843A4.716 4.716 0 0 0 24 21.75h.134a4.6 4.6 0 0 0 2.116-.586V25A1.25 1.25 0 0 1 25 26.25Z"/></svg>